# xmcd
#
# Track frame offsets: 
#        150
#        19379
#        38129
#        58211
#        74111
#        93386
#        112990
#        133278
#        152788
#        169288
#
# Disc length: 2514 seconds
#
# Revision: 1
# Processed by: cddbd v1.5.2PL0 Copyright (c) Steve Scherf et al.
# Submitted via: ExactAudioCopy v1.0b1
#
DISCID=9509d00a
DTITLE=ตั๊กเเตน ชลดา - คนเหงาที่เข้าใจเธอ
DYEAR=2552
DGENRE=Country
TTITLE0=ลูกจ้างเขาสาวโรงงาน
TTITLE1=สาวท้ายซอย
TTITLE2=คนเหงาที่เข้าใจเธอ
TTITLE3=เหมือนเดิมอีกทีหนึ่ง
TTITLE4=ว่างๆ อย่าลืมคิดถึงกัน
TTITLE5=บอกเเม่ย่าถ้ารักจริง
TTITLE6=คืนใจให้กัน
TTITLE7=อยากเป็นคนรัก ไม่อยากเป็นชู้
TTITLE8=ไมค์ลอยลำฟาง
TTITLE9=วันว่างที่ตั้งใจ
EXTD=
EXTT0=
EXTT1=
EXTT2=
EXTT3=
EXTT4=
EXTT5=
EXTT6=
EXTT7=
EXTT8=
EXTT9=
PLAYORDER=
